<?xml version="1.0" encoding="utf-8"?>
<!-- Generator: Adobe Illustrator 22.1.0, SVG Export Plug-In . SVG Version: 6.00 Build 0)  -->
<svg version="1.1" xmlns="http://www.w3.org/2000/svg" xmlns:xlink="http://www.w3.org/1999/xlink" x="0px" y="0px"
	 viewBox="0 0 512 512" style="enable-background:new 0 0 512 512;" xml:space="preserve">
<style type="text/css">
	.st0{fill:#FFFFFF;}
</style>
<g id="Warstwa_2">
</g>
<g id="Layer_1">
	<rect x="85.9" y="272" class="st0" width="17" height="240"/>
	
		<rect x="246.4" y="332.3" transform="matrix(-1.836970e-16 1 -1 -1.836970e-16 758.4 246.4)" class="st0" width="19.2" height="340.2"/>
	
		<rect x="251.2" y="106.7" transform="matrix(-1.836970e-16 1 -1 -1.836970e-16 532.8 20.8)" class="st0" width="9.6" height="340.2"/>
	<rect x="409.1" y="272" class="st0" width="17" height="240"/>
	<rect x="251.3" y="272" class="st0" width="9.4" height="240"/>
	<path class="st0" d="M68.5,256.6v-1.2c0-2.7,2.2-4.9,4.9-4.9h365.2c2.7,0,4.9,2.2,4.9,4.9v1.2c0,2.7-2.2,4.9-4.9,4.9H73.4
		C70.7,261.5,68.5,259.3,68.5,256.6z"/>
	<rect x="85.9" class="st0" width="17" height="240"/>
	
		<rect x="251.2" y="65.1" transform="matrix(-1.836970e-16 1 -1 -1.836970e-16 491.2 -20.8)" class="st0" width="9.6" height="340.2"/>
	
		<rect x="246.4" y="-160.5" transform="matrix(-1.836970e-16 1 -1 -1.836970e-16 265.6 -246.4)" class="st0" width="19.2" height="340.2"/>
	<rect x="409.1" class="st0" width="17" height="240"/>
	<rect x="251.3" class="st0" width="9.4" height="240"/>
</g>
</svg>
